<svg width="136" height="40" viewBox="0 0 136 40" fill="none" xmlns="http://www.w3.org/2000/svg">
    <g id="z.TBD / BX-Refresh / ic_logotype-pw">
        <rect width="136" height="40" fill="white" />
        <g id="Logotype / KR &#234;&#181;&#173;&#235;&#172;&#184;">
            <path id="Vector"
                d="M25.3981 18.4445H16.4032L17.862 5.7258C17.8819 5.55005 17.6717 5.44566 17.5436 5.56723L1.05884 21.3291C0.93463 21.4481 1.02052 21.6568 1.19099 21.6555L9.96126 21.5617L8.70459 34.5777C8.68741 34.7534 8.89751 34.8539 9.02437 34.7323L25.5289 18.7722C25.6518 18.6546 25.5672 18.4471 25.3981 18.4471V18.4445Z"
                fill="black" />
            <path id="Vector_2"
                d="M48.4208 24.7874V16.8113H45.1357V21.6174C45.1357 21.7046 45.067 21.7759 44.9798 21.7812L30.7653 22.471C30.6715 22.475 30.5935 22.401 30.5935 22.3071V7.23105C30.5935 7.14119 30.6662 7.06719 30.7574 7.06719H35.3083C35.3982 7.06719 35.4722 7.13987 35.4722 7.23105V10.8887H40.2571V7.23105C40.2571 7.14119 40.3297 7.06719 40.4209 7.06719H44.9719C45.0617 7.06719 45.1357 7.13987 45.1357 7.23105V12.2273H48.4208V6.95487C48.4208 6.86502 48.4935 6.79102 48.5847 6.79102H53.1356C53.2255 6.79102 53.2995 6.86369 53.2995 6.95487V24.7874C53.2995 24.8773 53.2268 24.9513 53.1356 24.9513H48.5847C48.4948 24.9513 48.4208 24.8786 48.4208 24.7874ZM35.4735 17.7984L40.2584 17.6967V14.7711H35.4735V17.7984Z"
                fill="black" />
            <path id="Vector_3"
                d="M32.8548 24.8008H37.4626C37.5524 24.8008 37.6264 24.8735 37.6264 24.9646V27.9947L53.128 27.3049C53.2205 27.3009 53.2985 27.3749 53.2985 27.4687V31.8334C53.2985 31.9219 53.2285 31.9933 53.1412 31.9972L32.8614 32.6857C32.7689 32.6883 32.6923 32.6143 32.6923 32.5218V24.9646C32.6923 24.8748 32.7649 24.8008 32.8561 24.8008H32.8548Z"
                fill="black" />
            <path id="Vector_4"
                d="M55.6732 28.6858L55.9599 28.2722C56.807 27.0552 57.6143 25.743 58.3623 24.3727C59.1128 22.9944 59.7868 21.57 60.3682 20.1375C60.9575 18.6866 61.4729 17.2013 61.8971 15.7227C62.2406 14.5321 62.5195 13.3335 62.7282 12.1535L62.7785 11.872H56.7277C56.6378 11.872 56.5638 11.7994 56.5638 11.7082V7.62235C56.5638 7.5325 56.6365 7.4585 56.7277 7.4585H67.8778C67.9743 7.4585 68.0496 7.54042 68.0403 7.63557L68.01 7.97781C67.7906 10.4779 67.4087 12.8433 66.8801 15.0065C66.3542 17.1657 65.7186 19.2059 64.9971 21.0757C64.2783 22.9403 63.4709 24.6991 62.5974 26.3059C61.7279 27.9022 60.8307 29.4086 59.9268 30.7869L59.7577 31.0445C59.7088 31.1185 59.6097 31.141 59.5344 31.0934L55.6705 28.6818V28.6845L55.6732 28.6858Z"
                fill="black" />
            <path id="Vector_5"
                d="M75.9682 32.6288V21.0214H74.105V32.6288C74.105 32.7186 74.0323 32.7926 73.9411 32.7926H69.5553C69.4655 32.7926 69.3915 32.7199 69.3915 32.6288V6.95487C69.3915 6.86502 69.4642 6.79102 69.5553 6.79102H73.9411C74.031 6.79102 74.105 6.86369 74.105 6.95487V16.4374H75.9682V6.95487C75.9682 6.86502 76.0409 6.79102 76.132 6.79102H80.5707C80.6606 6.79102 80.7346 6.86369 80.7346 6.95487V32.6288C80.7346 32.7186 80.6619 32.7926 80.5707 32.7926H76.132C76.0422 32.7926 75.9682 32.7199 75.9682 32.6288Z"
                fill="black" />
            <path id="Vector_6"
                d="M82.9243 18.5776C87.3366 15.0349 89.1892 11.8833 89.2077 11.8489L89.4336 11.4842H84.2999C84.2101 11.4842 84.1361 11.4115 84.1361 11.3204V7.28739C84.1361 7.19753 84.2088 7.12354 84.2999 7.12354H99.7447C99.8346 7.12354 99.9086 7.19621 99.9086 7.28739V11.3217C99.9086 11.4115 99.8359 11.4855 99.7447 11.4855H94.8991L94.829 11.6084C94.5845 12.0432 94.3242 12.4832 94.0533 12.914L93.9252 13.1201L99.9152 16.6563C99.9931 16.7025 100.02 16.8043 99.972 16.8822L97.7163 20.5862C97.6687 20.6655 97.5644 20.6892 97.4864 20.6377L91.4012 16.61L91.2625 16.7844C89.4799 19.0335 86.845 21.268 85.9517 22.0027C85.8817 22.0596 85.7812 22.049 85.7231 21.9789L82.9217 18.5776H82.9243Z"
                fill="black" />
            <path id="Vector_7"
                d="M101.775 20.917V6.95487C101.775 6.86502 101.847 6.79102 101.939 6.79102H106.273C106.363 6.79102 106.437 6.86369 106.437 6.95487V11.4702H109.821C109.911 11.4702 109.985 11.5428 109.985 11.634V15.8903C109.985 15.9802 109.912 16.0542 109.821 16.0542H106.437V20.917C106.437 21.0069 106.364 21.0809 106.273 21.0809H101.939C101.849 21.0809 101.775 21.0082 101.775 20.917Z"
                fill="black" />
            <path id="Vector_8"
                d="M130.123 32.6288V21.0214H125.911C125.822 21.0214 125.748 20.9487 125.748 20.8575V16.6012C125.748 16.5114 125.82 16.4374 125.911 16.4374H130.123V6.95487C130.123 6.86502 130.196 6.79102 130.287 6.79102H134.838C134.928 6.79102 135.002 6.86369 135.002 6.95487V32.6288C135.002 32.7186 134.929 32.7926 134.838 32.7926H130.287C130.197 32.7926 130.123 32.7199 130.123 32.6288Z"
                fill="black" />
            <path id="Vector_9"
                d="M112.348 7.26402H125.679C125.769 7.26402 125.843 7.33669 125.843 7.42787V11.5177C125.843 11.6075 125.771 11.6815 125.679 11.6815H117.062V16.4386H123.725C123.815 16.4386 123.889 16.5113 123.889 16.6025V20.8588C123.889 20.9487 123.816 21.0227 123.725 21.0227H117.062V26.6836L128.243 25.6899C128.338 25.682 128.42 25.7573 128.42 25.8525V29.9053C128.42 29.9898 128.355 30.0599 128.272 30.0678L112.362 31.5782C112.266 31.5874 112.184 31.5121 112.184 31.4156V7.42655C112.184 7.3367 112.256 7.2627 112.348 7.2627V7.26402Z"
                fill="black" />
            <path id="Vector_10"
                d="M96.2131 33.9593C87.0252 33.9593 85.6523 30.0756 85.6523 27.7592C85.6523 22.6347 91.3939 21.5591 96.2131 21.5591C102.923 21.5591 106.774 23.82 106.774 27.7592C106.774 30.073 105.401 33.9593 96.2131 33.9593ZM96.2131 25.8867C93.5253 25.8867 90.4411 26.1008 90.4411 27.7671C90.4411 29.0489 92.2752 29.6449 96.2131 29.6449C100.151 29.6449 101.985 29.0463 101.985 27.7671C101.985 26.488 100.043 25.8867 96.2131 25.8867Z"
                fill="black" />
        </g>
    </g>
</svg>