<svg xmlns="http://www.w3.org/2000/svg" width="30" height="30" viewBox="0 0 30 30" fill="none">
    <mask id="mask0_2260_143" style="mask-type:luminance" maskUnits="userSpaceOnUse" x="0" y="0"
        width="30" height="30">
        <path fill-rule="evenodd" clip-rule="evenodd"
            d="M30 20.658C30 21.0146 30 21.3713 29.9979 21.7284C29.9963 22.0288 29.9927 22.3291 29.9843 22.6294C29.9665 23.2832 29.9273 23.9438 29.8097 24.5904C29.6905 25.2473 29.496 25.8588 29.188 26.4558C28.8863 27.0419 28.4921 27.5784 28.0215 28.0436C27.551 28.5088 27.0077 28.8991 26.4148 29.1973C25.8115 29.5012 25.1935 29.694 24.5289 29.8119C23.8743 29.9282 23.2066 29.9669 22.5447 29.9845C21.2721 30 20.9113 30 20.5506 30H13.594H9.44995C8.06336 29.9959 7.75958 29.9928 7.45581 29.9845C6.79388 29.9669 6.12621 29.9282 5.4716 29.8119C4.80706 29.694 4.18906 29.5012 3.58569 29.1973C2.99226 28.8991 2.44954 28.5088 1.97898 28.0436C1.50842 27.5784 1.11419 27.0419 0.811982 26.4558C0.504548 25.8588 0.310049 25.2473 0.190317 24.5904C0.0726758 23.9438 0.0339851 23.2832 0.0162083 22.6294C0.00784271 22.3291 0.00418278 22.0288 0.00261424 21.7284C0 21.3713 0 21.0146 0 20.658V16.5612V13.4388V9.342C0 8.98536 0 8.6282 0.00261424 8.27207C0.00418278 7.97125 0.00784271 7.67094 0.0162083 7.37064C0.0339851 6.71628 0.0726758 6.05623 0.190317 5.4091C0.310049 4.75215 0.504548 4.1412 0.811982 3.54421C1.11419 2.95756 1.50842 2.42104 1.97898 1.95637C2.44954 1.49067 2.99226 1.10094 3.58569 0.802707C4.18906 0.498785 4.80706 0.30599 5.4716 0.188143C6.12621 0.0718457 6.79388 0.03308 7.45581 0.0155063C8.72842 0 9.08918 0 9.44995 0H13.594H20.2546L16.406 0.00155063L20.5506 0C21.9366 0.004135 22.2404 0.00723625 22.5447 0.0155063C23.2066 0.03308 23.8743 0.0718457 24.5289 0.188143C25.1935 0.30599 25.8115 0.498785 26.4148 0.802707C27.0077 1.10094 27.551 1.49067 28.0215 1.95637C28.4921 2.42104 28.8863 2.95756 29.188 3.54421C29.496 4.1412 29.6905 4.75215 29.8097 5.4091C29.9273 6.05623 29.9665 6.71628 29.9843 7.37064C29.9927 7.67094 29.9963 7.97125 29.9979 8.27207C30 8.6282 30 8.98536 30 9.342V13.4388V16.5612V20.658Z"
            fill="white" />
    </mask>
    <g mask="url(#mask0_2260_143)">
        <rect width="30" height="30" fill="#EF0E0E" />
        <path
            d="M23.0245 14.1835H17.0706L18.0362 5.76476C18.0494 5.64843 17.9103 5.57933 17.8254 5.6598L6.91395 16.0929C6.83173 16.1716 6.88858 16.3098 7.00142 16.3089L12.8066 16.2468L11.9748 24.8623C11.9634 24.9786 12.1025 25.0451 12.1865 24.9646L23.1111 14.4004C23.1924 14.3225 23.1364 14.1852 23.0245 14.1852V14.1835Z"
            fill="black" />
    </g>
</svg>